<svg xmlns="http://www.w3.org/2000/svg" width="40" height="40" viewBox="0 0 40 40" fill="#131313">
  <path d="M37.7152 1.92476H39.4251V37.7361H37.7152V1.92476Z" fill="#FFEC1A"/>
  <path d="M1.90979 37.7361H37.7152V39.44H1.90979V37.7361Z" fill="#FFEC1A"/>
  <path d="M32.6035 22.3892H34.3075V32.6185H32.6035V22.3892Z" fill="#FFEC1A"/>
  <path d="M7.02148 32.6185H32.6035V34.3283H7.02148V32.6185Z" fill="#FFEC1A"/>
  <path d="M27.4858 5.33842H29.1898V10.456H27.4858V5.33842Z" fill="#FFEC1A"/>
  <path d="M8.73706 13.8638H30.9054V15.5678H8.73706V13.8638Z" fill="#FFEC1A"/>
  <path d="M8.73706 24.099H30.9054V25.8088H8.73706V24.099Z" fill="#FFEC1A"/>
  <path d="M8.73706 29.2107H30.9054V30.9146H8.73706V29.2107Z" fill="#FFEC1A"/>
  <path d="M25.782 3.63454H27.4859V5.33849H25.782V3.63454Z" fill="#FFEC1A"/>
  <path d="M25.782 10.456H27.4859V12.16H25.782V10.456Z" fill="#FFEC1A"/>
  <path d="M24.084 5.33842H25.7879V10.456H24.084V5.33842Z" fill="#FFEC1A"/>
  <path d="M7.02148 20.6853H32.6035V22.3893H7.02148V20.6853Z" fill="#FFEC1A"/>
  <path d="M5.32349 22.3892H7.02744V32.6185H5.32349V22.3892Z" fill="#FFEC1A"/>
  <path d="M7.02149 1.92476V13.8638H8.73709V1.92476H30.8996V13.8638H32.6035V1.92476H37.7152V0.221008H1.90979V1.92476H7.02149Z" fill="#FFEC1A"/>
  <path d="M0.205811 1.92476H1.90976V37.7361H0.205811V1.92476Z" fill="#FFEC1A"/>
</svg>