<svg xmlns="http://www.w3.org/2000/svg" width="44" height="38" viewBox="0 0 44 38" fill="#131313">
  <path d="M42.041 18.014H43.7826V23.3122H42.041V18.014Z" fill="#FFEC1A"/>
  <path d="M40.2914 23.3122H42.039V26.8504H40.2914V23.3122Z" fill="#FFEC1A"/>
  <path d="M38.5499 26.8505H40.2915V30.3827H38.5499V26.8505Z" fill="#FFEC1A"/>
  <path d="M36.8085 30.3826H38.5501V33.9208H36.8085V30.3826Z" fill="#FFEC1A"/>
  <path d="M35.0668 35.687H1.95339V33.9208H3.69498V28.6104H1.95339V7.40532H0.205933V37.453H36.8085V33.9207H35.0669L35.0668 35.687Z" fill="#FFEC1A"/>
  <path d="M8.91956 5.6393H28.0946V7.40542H8.91956V5.6393Z" fill="#FFEC1A"/>
  <path d="M8.91956 9.17754H28.0946V10.9437H8.91956V9.17754Z" fill="#FFEC1A"/>
  <path d="M8.91956 12.7097H28.0946V14.4758H8.91956V12.7097Z" fill="#FFEC1A"/>
  <path d="M7.1781 18.014H8.9197V21.5463H7.1781V18.014Z" fill="#FFEC1A"/>
  <path d="M3.69494 28.6105H5.43654V25.0844H7.17813V21.5462H5.43654V2.10719H31.5778V16.2358H8.91963V18.014H42.0391V16.2358H36.8084V10.9437H35.0668V16.2358H33.3254V10.9437H35.0668V9.17774H33.3254V0.329086H3.69509V5.6395H1.95349V7.40562H3.69509L3.69494 28.6105Z" fill="#FFEC1A"/>
</svg>