<svg xmlns="http://www.w3.org/2000/svg" width="45" height="45" viewBox="0 0 45 45" fill="#131313">
  <path d="M42.5804 14.8933V21.939H33.8663V13.1334H32.1246V7.8536H30.3829V13.1334H23.4104V2.56777H25.1521V4.32774H26.8937V2.56777H30.3829V0.8078H14.6963V2.56777H18.1797V4.32774H19.9213V2.56777H21.6691V13.1334H14.6966V7.8536H12.9549V13.1334H11.2072V21.939H2.49302V14.8933H0.751343V30.7447H2.49302V23.705H11.2072V32.5107H12.9549V37.7905H14.6966V32.5107H21.6691V43.0763H19.9213V41.3163H18.1797V43.0763H16.438V44.8363H28.6414V43.0763H26.8936V41.3163H25.152V43.0763H23.4103V32.5107H30.3828V37.7905H32.1245V32.5107H33.8661V23.705H42.5803V30.7447H44.328V14.8933H42.5803H42.5804ZM32.1246 14.8933V21.939H23.4105V14.8933H32.1246ZM12.9547 14.8933H21.6689V21.939H12.9547V14.8933ZM12.9547 30.7447V23.705H21.6689V30.7447H12.9547ZM32.1246 30.7447H23.4105V23.705H32.1246V30.7447Z" fill="#FFEC1A"/>
  <path d="M40.8407 30.7447H42.5824V34.2706H40.8407V30.7447Z" fill="#FFEC1A"/>
  <path d="M40.8407 11.3795H42.5824V14.8995H40.8407V11.3795Z" fill="#FFEC1A"/>
  <path d="M39.0991 34.2706H40.8408V36.0306H39.0991V34.2706Z" fill="#FFEC1A"/>
  <path d="M39.0991 9.61352H40.8408V11.3735H39.0991V9.61352Z" fill="#FFEC1A"/>
  <path d="M37.3575 36.0366H39.0992V37.7966H37.3575V36.0366Z" fill="#FFEC1A"/>
  <path d="M37.3575 7.85966H39.0992V9.61963H37.3575V7.85966Z" fill="#FFEC1A"/>
  <path d="M35.6099 37.7905H37.3576V39.5566H35.6099V37.7905Z" fill="#FFEC1A"/>
  <path d="M33.8683 11.3795H39.0992V13.1395H33.8683V11.3795Z" fill="#FFEC1A"/>
  <path d="M35.6099 6.08761H37.3576V7.8537H35.6099V6.08761Z" fill="#FFEC1A"/>
  <path d="M33.8683 39.5625H35.61V41.3225H33.8683V39.5625Z" fill="#FFEC1A"/>
  <path d="M33.8683 32.5168H39.0992V34.2767H33.8683V32.5168Z" fill="#FFEC1A"/>
  <path d="M33.8683 4.33376H35.61V6.09373H33.8683V4.33376Z" fill="#FFEC1A"/>
  <path d="M28.6434 41.3164H33.8683V43.0763H28.6434V41.3164Z" fill="#FFEC1A"/>
  <path d="M30.385 2.56776H33.8684V4.32774H30.385V2.56776Z" fill="#FFEC1A"/>
  <path d="M28.6434 37.7905H30.3851V39.5566H28.6434V37.7905Z" fill="#FFEC1A"/>
  <path d="M28.6434 6.08761H30.3851V7.8537H28.6434V6.08761Z" fill="#FFEC1A"/>
  <path d="M26.8958 39.5625H28.6435V41.3225H26.8958V39.5625Z" fill="#FFEC1A"/>
  <path d="M26.8958 4.33376H28.6435V6.09373H26.8958V4.33376Z" fill="#FFEC1A"/>
  <path d="M16.4401 39.5625H18.1817V41.3225H16.4401V39.5625Z" fill="#FFEC1A"/>
  <path d="M16.4401 4.33376H18.1817V6.09373H16.4401V4.33376Z" fill="#FFEC1A"/>
  <path d="M11.2091 41.3164H16.44V43.0763H11.2091V41.3164Z" fill="#FFEC1A"/>
  <path d="M14.6984 37.7905H16.44V39.5566H14.6984V37.7905Z" fill="#FFEC1A"/>
  <path d="M14.6984 6.08761H16.44V7.8537H14.6984V6.08761Z" fill="#FFEC1A"/>
  <path d="M11.2091 2.56776H14.6983V4.32774H11.2091V2.56776Z" fill="#FFEC1A"/>
  <path d="M9.46753 39.5625H11.2092V41.3225H9.46753V39.5625Z" fill="#FFEC1A"/>
  <path d="M5.98425 11.3795H11.2091V13.1395H5.98425V11.3795Z" fill="#FFEC1A"/>
  <path d="M9.46753 4.33376H11.2092V6.09373H9.46753V4.33376Z" fill="#FFEC1A"/>
  <path d="M7.72583 37.7905H9.46751V39.5566H7.72583V37.7905Z" fill="#FFEC1A"/>
  <path d="M5.98425 32.5168H11.2091V34.2767H5.98425V32.5168Z" fill="#FFEC1A"/>
  <path d="M7.72583 6.08761H9.46751V7.8537H7.72583V6.08761Z" fill="#FFEC1A"/>
  <path d="M5.98425 36.0366H7.72593V37.7966H5.98425V36.0366Z" fill="#FFEC1A"/>
  <path d="M5.98425 7.85966H7.72593V9.61963H5.98425V7.85966Z" fill="#FFEC1A"/>
  <path d="M4.23657 34.2706H5.9843V36.0306H4.23657V34.2706Z" fill="#FFEC1A"/>
  <path d="M4.23657 9.61352H5.9843V11.3735H4.23657V9.61352Z" fill="#FFEC1A"/>
  <path d="M2.495 30.7447H4.23667V34.2706H2.495V30.7447Z" fill="#FFEC1A"/>
  <path d="M2.495 11.3795H4.23667V14.8995H2.495V11.3795Z" fill="#FFEC1A"/>
</svg>